<svg width="198" height="34" viewBox="0 0 198 34" fill="none" xmlns="http://www.w3.org/2000/svg">
<path d="M8.97319 9.424V15.184H13.4852C13.9972 15.184 14.3332 15.28 14.4932 15.472C14.6852 15.632 14.7812 15.968 14.7812 16.48V17.968H8.97319V22.528C8.97319 23.04 8.87719 23.392 8.68519 23.584C8.52519 23.744 8.18919 23.824 7.67719 23.824H6.18919V17.968H1.67719C1.16519 17.968 0.813188 17.888 0.621188 17.728C0.461188 17.536 0.381188 17.184 0.381188 16.672V15.184H6.18919V10.72C6.18919 10.208 6.26919 9.872 6.42919 9.712C6.62119 9.52 6.97319 9.424 7.48519 9.424H8.97319ZM34.3434 13.408C34.3434 14.336 34.2634 15.104 34.1034 15.712C33.9754 16.288 33.7354 16.752 33.3834 17.104C33.0314 17.424 32.5674 17.648 31.9914 17.776C31.4154 17.904 30.6794 17.968 29.7834 17.968H26.9994C26.5194 17.968 26.1194 18.016 25.7994 18.112C25.5114 18.176 25.2874 18.304 25.1274 18.496C24.9674 18.688 24.8554 18.96 24.7914 19.312C24.7594 19.664 24.7434 20.128 24.7434 20.704V28.48C24.7434 29.472 24.8714 30.176 25.1274 30.592C25.3834 31.008 26.0074 31.216 26.9994 31.216H34.3434V32.704C34.3434 33.216 34.2474 33.568 34.0554 33.76C33.8954 33.92 33.5594 34 33.0474 34H25.4634C23.7994 34 22.6154 33.664 21.9114 32.992C21.2394 32.288 20.9034 31.104 20.9034 29.44V19.744C20.9034 18.816 20.9674 18.064 21.0954 17.488C21.2554 16.88 21.5114 16.416 21.8634 16.096C22.2154 15.744 22.6794 15.504 23.2554 15.376C23.8314 15.248 24.5674 15.184 25.4634 15.184H28.2474C28.7274 15.184 29.1114 15.152 29.3994 15.088C29.7194 14.992 29.9594 14.848 30.1194 14.656C30.2794 14.464 30.3754 14.192 30.4074 13.84C30.4714 13.488 30.5034 13.024 30.5034 12.448V5.92C30.5034 4.928 30.3754 4.224 30.1194 3.808C29.8634 3.392 29.2394 3.184 28.2474 3.184H21.1914C21.3834 2.256 21.6714 1.568 22.0554 1.12C22.4714 0.639997 23.1434 0.399998 24.0714 0.399998H29.7834C31.4474 0.399998 32.6154 0.751998 33.2874 1.456C33.9914 2.128 34.3434 3.296 34.3434 4.96V13.408ZM54.5199 32.704C54.5199 33.216 54.4239 33.568 54.2319 33.76C54.0719 33.92 53.7359 34 53.2239 34H50.6799V17.968H44.1999C43.3039 17.968 42.5679 17.904 41.9919 17.776C41.4159 17.648 40.9519 17.424 40.5999 17.104C40.2479 16.752 39.9919 16.288 39.8319 15.712C39.7039 15.104 39.6399 14.336 39.6399 13.408V1.696C39.6399 1.184 39.7199 0.848 39.8799 0.688C40.0719 0.495998 40.4239 0.399998 40.9359 0.399998H43.4799V12.448C43.4799 13.024 43.4959 13.488 43.5279 13.84C43.5919 14.192 43.7039 14.464 43.8639 14.656C44.0239 14.848 44.2479 14.992 44.5359 15.088C44.8559 15.152 45.2559 15.184 45.7359 15.184H50.6799V1.696C50.6799 1.184 50.7599 0.848 50.9199 0.688C51.1119 0.495998 51.4639 0.399998 51.9759 0.399998H54.5199V32.704ZM69.3849 5.92C69.3849 4.928 69.2569 4.224 69.0009 3.808C68.7449 3.392 68.1209 3.184 67.1289 3.184H60.0729C60.2649 2.256 60.5529 1.568 60.9369 1.12C61.3529 0.639997 62.0249 0.399998 62.9529 0.399998H68.6649C70.3289 0.399998 71.4969 0.751998 72.1689 1.456C72.8729 2.128 73.2249 3.296 73.2249 4.96V11.968C73.2249 13.28 73.0809 14.272 72.7929 14.944C72.5049 15.616 71.8969 16.064 70.9689 16.288V16.336C72.7289 16.784 73.6089 18.24 73.6089 20.704V29.44C73.6089 31.104 73.2569 32.288 72.5529 32.992C71.8809 33.664 70.7129 34 69.0489 34H63.3369C62.4089 34 61.7369 33.776 61.3209 33.328C60.9369 32.848 60.6489 32.144 60.4569 31.216H67.5129C68.5049 31.216 69.1289 31.008 69.3849 30.592C69.6409 30.176 69.7689 29.472 69.7689 28.48V20.704C69.7689 19.712 69.5609 19.008 69.1449 18.592C68.7289 18.176 68.0249 17.968 67.0329 17.968H63.0009V16.48C63.0009 15.968 63.0809 15.632 63.2409 15.472C63.4329 15.28 63.7849 15.184 64.2969 15.184H67.3209C68.1849 15.152 68.7449 14.928 69.0009 14.512C69.2569 14.064 69.3849 13.376 69.3849 12.448V5.92Z" fill="white"/>
<path d="M93.6058 22.336C93.3818 22.816 93.1578 23.152 92.9338 23.344C92.7418 23.536 92.4378 23.632 92.0218 23.632H90.4858L83.8138 6.064H83.5258L83.9098 11.872L84.1498 32.704C84.1498 33.216 84.0538 33.568 83.8618 33.76C83.7018 33.92 83.3658 34 82.8538 34H80.2138V1.696C80.2138 1.184 80.2938 0.848 80.4538 0.688C80.6458 0.495998 80.9978 0.399998 81.5098 0.399998H84.7258L90.8698 16.048L91.9258 20.032H92.2138L93.3178 16.048L99.3658 1.696C99.5578 1.248 99.7818 0.927999 100.038 0.735999C100.294 0.511998 100.662 0.399998 101.142 0.399998H104.022V32.704C104.022 33.216 103.926 33.568 103.734 33.76C103.574 33.92 103.238 34 102.726 34H100.182V11.872L100.614 6.064H100.326L93.6058 22.336ZM114.661 28.48C114.661 29.472 114.789 30.176 115.045 30.592C115.301 31.008 115.925 31.216 116.917 31.216H121.237C122.229 31.216 122.853 31.008 123.109 30.592C123.365 30.176 123.493 29.472 123.493 28.48V5.92C123.493 4.928 123.365 4.224 123.109 3.808C122.853 3.392 122.229 3.184 121.237 3.184H116.917C115.925 3.184 115.301 3.392 115.045 3.808C114.789 4.224 114.661 4.928 114.661 5.92V28.48ZM110.821 4.96C110.821 3.296 111.157 2.128 111.829 1.456C112.533 0.751998 113.717 0.399998 115.381 0.399998H122.773C124.437 0.399998 125.605 0.751998 126.277 1.456C126.981 2.128 127.333 3.296 127.333 4.96V29.44C127.333 31.104 126.981 32.288 126.277 32.992C125.605 33.664 124.437 34 122.773 34H115.381C113.717 34 112.533 33.664 111.829 32.992C111.157 32.288 110.821 31.104 110.821 29.44V4.96ZM132.199 1.696C132.007 0.831998 132.327 0.399998 133.159 0.399998H135.799L140.935 24.256L141.607 29.584H141.895L142.567 24.256L147.127 1.696C147.255 1.184 147.431 0.848 147.655 0.688C147.879 0.495998 148.247 0.399998 148.759 0.399998H151.159L144.247 32.704C144.119 33.216 143.943 33.568 143.719 33.76C143.527 33.92 143.175 34 142.663 34H139.111L132.199 1.696ZM159.757 0.399998V32.704C159.757 33.216 159.661 33.568 159.469 33.76C159.309 33.92 158.973 34 158.461 34H155.917V1.696C155.917 1.184 155.997 0.848 156.157 0.688C156.349 0.495998 156.701 0.399998 157.213 0.399998H159.757ZM170.491 17.968V31.216H179.659V32.704C179.659 33.216 179.563 33.568 179.371 33.76C179.211 33.92 178.875 34 178.363 34H166.651V1.696C166.651 1.184 166.731 0.848 166.891 0.688C167.083 0.495998 167.435 0.399998 167.947 0.399998H179.659V1.888C179.659 2.4 179.579 2.752 179.419 2.944C179.291 3.104 178.971 3.184 178.459 3.184H170.491V15.184H178.219V16.672C178.219 17.184 178.139 17.536 177.979 17.728C177.851 17.888 177.531 17.968 177.019 17.968H170.491ZM197.98 29.44C197.98 31.104 197.628 32.288 196.924 32.992C196.252 33.664 195.084 34 193.42 34H187.564C186.636 34 185.964 33.776 185.548 33.328C185.164 32.848 184.876 32.144 184.684 31.216H191.884C192.876 31.216 193.5 31.008 193.756 30.592C194.012 30.176 194.14 29.472 194.14 28.48V20.704C194.14 19.712 193.996 19.008 193.708 18.592C193.452 18.176 192.78 17.968 191.692 17.968H189.244C187.58 17.968 186.396 17.632 185.692 16.96C185.02 16.256 184.684 15.072 184.684 13.408V4.96C184.684 3.296 185.02 2.128 185.692 1.456C186.396 0.751998 187.58 0.399998 189.244 0.399998H194.956C195.884 0.399998 196.54 0.639997 196.924 1.12C197.34 1.568 197.644 2.256 197.836 3.184H190.78C189.788 3.184 189.164 3.392 188.908 3.808C188.652 4.224 188.524 4.928 188.524 5.92V12.448C188.524 13.44 188.652 14.144 188.908 14.56C189.164 14.976 189.788 15.184 190.78 15.184H193.42C195.084 15.184 196.252 15.536 196.924 16.24C197.628 16.912 197.98 18.08 197.98 19.744V29.44Z" fill="#FFA111"/>
</svg>
